<?xml version="1.0" encoding="UTF-8"?>
<svg enable-background="new 0 0 387.721 307.91" viewBox="0 0 387.721 307.91" xmlns="http://www.w3.org/2000/svg">
 <path d="m193.86 224.97c107.01 0 193.86 18.578 193.86 41.471s-86.85 41.473-193.86 41.473-193.86-18.581-193.86-41.473 86.849-41.471 193.86-41.471" fill="#80c2ff" fill-rule="evenodd"/>
 <path d="m150.768,121.234c-9.612-2.232-18.072-5.58-26.208-10.188-8.172-4.824-15.876-12.456-21.852-17.496-5.976-5.076-8.892-10.872-13.608-12.132-4.752-1.224-9.576-2.52-15.048,4.86-5.688,7.308-13.824,25.344-18.432,38.844-4.752,13.284-8.928,26.388-9.216,41.257-.252,14.975-.072,33.336 7.776,47.592 7.884,14.039 23.868,28.115 38.808,36.396 14.76,8.135 25.992,9.863 49.536,12.131 23.616,2.016 66.06,1.691 90.792.973 24.516-.828 39.924,1.188 55.799-5.328 15.732-6.697 29.773-21.564 38.377-33.516 8.568-12.096 12.637-24.732 12.6-37.369-.324-12.635-6.695-27.215-13.572-37.368-6.984-10.188-20.951-16.164-27.18-23.328-6.229-7.308-9.791-12.096-9.721-19.908 .072-7.884 3.42-16.632 10.189-26.676v-43.704c-.973-1.908-3.133-4.752-6.625-8.244-3.6-3.672-6.229-8.64-14.256-13.104-8.207-4.68-22.355-11.484-33.984-13.608-11.736-2.124-24.336-1.872-35.424,1.44-11.232,3.312-23.328,10.62-30.6,18.468-7.2,7.848-10.368,19.224-12.132,28.152-1.8,8.676-1.08,15.84 1.476,24.264 2.556,8.46 8.928,19.62 13.572,26.244 4.572,6.444 10.728,8.748 13.607,12.6 2.664,3.852 4.141,7.38 2.916,10.188-1.332,2.664-4.931,5.436-10.224,5.832-5.328.288-15.048-2.736-21.24-3.924-6.262-1.26-11.59-2.376-16.126-3.348z" fill="#f2c802" fill-rule="evenodd"/>
 <path d="m59.076,120.91c.216-4.032 6.336-16.452 9.612-22.536 3.096-6.192 5.796-11.34 9.216-13.644 3.312-2.304 5.58-3.42 11.088,0 5.472,3.276 14.076,14.076 21.78,19.908 7.704,5.76 14.04,10.692 24.012,14.796 9.828,4.032 30.744,7.272 34.704,9.576 3.78,2.232-3.78,4.392-11.448,3.708-7.812-.864-24.984-7.632-34.704-8.496-9.684-.936-16.992,5.508-23.292,2.952-6.444-2.736-10.764-15.12-14.76-18.828-3.888-3.78-6.048-5.58-8.856-3.312-3.024,2.16-5.976,13.896-8.856,16.596-3.024,2.592-8.64,3.132-8.496-.72z" fill="#d8a202" fill-rule="evenodd"/>
 <path d="m125.532,145.282c3.06-.396 24.408,4.968 42.084,7.74 17.676,2.521 47.521,3.995 63.144,7.739 15.408,3.6 23.508,6.877 29.16,14.4 5.436,7.488 6.695,21.275 4.068,30.672-2.844,9.324-9.865,19.584-19.943,25.092-10.189,5.473-23.797,8.209-39.854,7.381-16.235-1.045-51.624-11.629-55.763-13.285-3.888-1.654 18.252,3.205 32.112,3.313 13.788.072 37.907,1.836 49.86-3.313 11.771-5.436 19.115-20.23 20.664-28.439 1.332-8.244-3.6-15.012-12.168-20.305-8.748-5.398-24.156-8.1-39.133-11.447-15.156-3.455-37.728-5.615-50.22-8.855-12.599-3.385-26.891-10.189-24.011-10.693z" fill="#d8a202" fill-rule="evenodd"/>
 <path d="m230.039,1.822c7.957-.036 15.66.936 23.258,3.312 7.631,2.196 14.832,5.148 22.139,10.368 7.201,5.184 17.064,13.5 20.701,20.664 3.311,7.2-.072,14.328 0,21.78 .07,7.308.359,14.436.719,21.78-3.527,3.528-6.371,7.74-8.135,12.924-1.908,5.112-3.816,12.168-2.953,17.712 .721,5.472 2.016,8.856 7.777,15.156 5.688,6.264 26.711,19.8 26.566,22.14-.395,2.088-20.16-3.204-28.043-9.216-7.848-6.228-12.061-21.816-18.469-27.324-6.516-5.616-19.367,0-19.943-5.904-.541-6.084 12.455-18.9 16.631-29.556 3.961-10.692 8.785-24.48 7.381-33.588-1.584-9.18-9.863-17.46-16.236-20.664-6.48-3.096-14.58,2.7-21.816,1.836-7.271-.972-19.871-4.248-21.42-7.74-1.585-3.672 2.269-8.1 11.843-13.68z" fill="#d8a202" fill-rule="evenodd"/>
 <path d="m255.66 23.942c8.049 0 14.58 7.032 14.58 15.696s-6.531 15.696-14.58 15.696-14.58-7.032-14.58-15.696 6.531-15.696 14.58-15.696" fill="#fff" fill-rule="evenodd"/>
 <path d="m257.1 28.382c4.73 0 8.568 4.129 8.568 9.216s-3.838 9.216-8.568 9.216-8.568-4.129-8.568-9.216 3.839-9.216 8.568-9.216" fill-rule="evenodd"/>
 <path d="m258.06 34.646c1.689 0 3.059 1.484 3.059 3.313s-1.369 3.312-3.059 3.312-3.061-1.484-3.061-3.313 1.371-3.312 3.061-3.312" fill="#fff" fill-rule="evenodd"/>
 <path d="m190.512,32.098c-6.048,3.708-8.1,11.88-8.496,18.828-.468,6.876.072,22.176 5.904,22.14 5.868-.432 23.615-15.732 28.801-23.256 5.076-7.452 5.76-18.072 1.475-21.024-4.501-2.844-21.6-.576-27.684,3.312z" fill="#ffe42e" fill-rule="evenodd"/>
 <path d="m200.844,107.59c3.096.072 9.756,4.896 17.748,6.3 7.848,1.332 26.82-.144 29.16,1.836 2.123,1.944-6.732,6.444-15.877,9.612-9.322,3.096-33.982,8.64-39.131,8.856-5.112.072 7.561-5.076 8.855-8.496 1.225-3.6-1.043-9.54-1.115-12.564-.179-3.168-2.701-5.616.36-5.544z" fill="#ffe42e" fill-rule="evenodd"/>
 <path d="m67.572 149.31c-1.044 2.916 3.888 20.447 8.136 27.324 4.284 6.732 12.996 13.896 16.956 13.32 3.816-0.756 7.236-11.736 5.544-16.992-1.98-5.256-11.448-10.08-16.596-14.041-5.256-4.03-12.996-12.599-14.04-9.611z" fill="#ffe42e" fill-rule="evenodd"/>
 <path d="m160.236,168.539c-1.188-1.801-9.684-.9-16.596-2.592-7.02-1.908-20.412-8.244-24.768-7.74-4.428.611-6.264,8.352-1.08,11.412 5.184,3.023 24.912,6.73 32.112,6.658 7.092-.287 11.232-5.974 10.332-7.738z" fill="#ffe42e" fill-rule="evenodd"/>
 <path d="m156.6,184.666c-1.188-1.404-8.136.107-14.04-.611-6.048-.793-17.604-5.076-21.204-4.104s-4.392,7.451.144,9.574c4.68,2.053 21.168,3.168 27.252,2.521 5.832-.972 8.82-5.976 7.848-7.38z" fill="#ffe42e" fill-rule="evenodd"/>
 <path d="m158.616,202.055c-1.152-1.26-7.704.252-13.392-.324-5.724-.721-16.992-4.5-20.34-3.564-3.42.936-4.104,7.271.288,9.145 4.464,1.871 20.376,2.699 26.064,1.908 5.58-.902 8.316-5.978 7.38-7.165z" fill="#ffe42e" fill-rule="evenodd"/>
 <path d="m262.871,259.727c5.904-.576 14.545-1.404 22.178-4.428 7.559-3.061 15.982-7.992 22.895-13.68 6.697-5.869 13.068-12.889 17.713-20.664 4.607-7.92 8.676-17.064 9.973-25.488 1.223-8.461.107-18.469-2.953-24.336-3.203-5.869-9.973-8.424-15.875-10.729-6.049-2.447-19.332-7.2-19.584-3.709-.182,3.422 16.99,16.777 18.467,24.373 1.297,7.416-9.432,14.039-9.971,20.699-.541,6.588 9.322,12.385 6.658,19.189-2.807,6.803-14.398,17.783-23.256,21.42-9.143,3.42-26.135-1.836-30.275-.361-3.996,1.549 7.668,6.336 6.264,9.217-1.727,2.699-15.047,5.508-15.516,7.02-.398,1.404 7.27,1.943 13.282,1.477z" fill="#d8a202" fill-rule="evenodd"/>
 <path d="m289.549,55.714c2.088-9.036 1.043-12.24 8.676-17.82 7.703-5.616 29.916-18.9 34.199-16.38 4.104,2.7.828,12.816-9.936,30.996 5.904,7.38 9.035,13.392 9.684,18.324 .576,4.788-2.268,8.604-6.191,10.908-4.176,2.304-11.664,4.14-17.604,2.736-5.904-1.584-11.594-5.328-17.354-11.664 0,0-3.599-8.064-1.474-17.1z" fill="#cd3204" fill-rule="evenodd"/>
 <path d="m317.81 51.034c3.24-1.152 4.031-5.004 5.688-8.928 1.619-3.996 6.229-13.32 3.959-14.364-2.482-1.008-13.139 5.328-18.07 8.172-4.969 2.808-10.262 5.904-11.16 8.172-0.938 2.016 2.303 2.952 5.688 4.212 3.274 1.116 10.547 3.744 13.895 2.736z" fill="#da4100" fill-rule="evenodd"/>
 <path d="m314.568,54.742c-2.809-2.196-12.205-3.672-15.84-2.484-3.637,1.332-5.328,5.832-5.473,9.9-.217,3.852 1.439,10.728 4.969,13.392 3.527,2.484 12.023,2.592 16.344,1.98 4.211-.684 8.855-3.276 8.928-5.436-.072-2.232-7.488-4.572-8.928-7.452-1.584-2.988 2.627-7.812 0-9.9z" fill="#da4100" fill-rule="evenodd"/>
</svg>
